<svg style="position: absolute; width: 0; height: 0; overflow: hidden;" version="1.1" xmlns="https://www.w3.org/2000/svg" xmlns:xlink="https://www.w3.org/1999/xlink">
  <defs>
    <!-- Search Icon -->
    <symbol id="icon-search" viewBox="0 0 20 20">
      <path d="M20 7.5a7.5 7.5 0 0 1-7.5 7.5 7.38 7.38 0 0 1-4-1.16l-5.65 5.67a1.68 1.68 0 0 1-1.18.49 1.64 1.64 0 0 1-1.18-.49 1.68 1.68 0 0 1 0-2.36l5.67-5.65A7.37 7.37 0 0 1 5 7.5a7.5 7.5 0 1 1 15 0zm-2.5 0a5 5 0 1 0-5 5 5 5 0 0 0 5-5z"/>
    </symbol>

    <symbol id="icon-facebook" viewBox="0 0 20 20">
      <title>Facebook icon</title>
      <path d="M11.344,5.71c0-0.73,0.074-1.122,1.199-1.122h1.502V1.871h-2.404c-2.886,0-3.903,1.36-3.903,3.646v1.765h-1.8V10h1.8v8.128h3.601V10h2.403l0.32-2.718h-2.724L11.344,5.71z"></path>
    </symbol>

    <symbol id="icon-twitter" viewBox="0 0 20 20">
      <title>Twitter icon</title>
      <path d="M18.258,3.266c-0.693,0.405-1.46,0.698-2.277,0.857c-0.653-0.686-1.586-1.115-2.618-1.115c-1.98,0-3.586,1.581-3.586,3.53c0,0.276,0.031,0.545,0.092,0.805C6.888,7.195,4.245,5.79,2.476,3.654C2.167,4.176,1.99,4.781,1.99,5.429c0,1.224,0.633,2.305,1.596,2.938C2.999,8.349,2.445,8.19,1.961,7.925C1.96,7.94,1.96,7.954,1.96,7.97c0,1.71,1.237,3.138,2.877,3.462c-0.301,0.08-0.617,0.123-0.945,0.123c-0.23,0-0.456-0.021-0.674-0.062c0.456,1.402,1.781,2.422,3.35,2.451c-1.228,0.947-2.773,1.512-4.454,1.512c-0.291,0-0.575-0.016-0.855-0.049c1.588,1,3.473,1.586,5.498,1.586c6.598,0,10.205-5.379,10.205-10.045c0-0.153-0.003-0.305-0.01-0.456c0.7-0.499,1.308-1.12,1.789-1.827c-0.644,0.28-1.334,0.469-2.06,0.555C17.422,4.782,17.99,4.091,18.258,3.266"></path>
    </symbol>

    <symbol id="icon-instagram" viewBox="0 0 60 60">
      <title>Instagram icon</title>
      <path d="M30 6.07c7.79 0 8.72 0 11.8.17a16.15 16.15 0 0 1 5.42 1 9 9 0 0 1 3.36 2.18 9 9 0 0 1 2.18 3.36 16.15 16.15 0 0 1 1 5.42c.14 3.08.17 4 .17 11.8s0 8.72-.17 11.8a16.15 16.15 0 0 1-1 5.42 9.67 9.67 0 0 1-5.54 5.54 16.15 16.15 0 0 1-5.42 1c-3.08.14-4 .17-11.8.17s-8.72 0-11.8-.17a16.15 16.15 0 0 1-5.42-1 9 9 0 0 1-3.36-2.18 9 9 0 0 1-2.18-3.36 16.15 16.15 0 0 1-1-5.42c-.14-3.08-.17-4-.17-11.8s0-8.72.17-11.8a16.15 16.15 0 0 1 1-5.42 9 9 0 0 1 2.19-3.35 9 9 0 0 1 3.36-2.18 16.15 16.15 0 0 1 5.42-1c3.08-.14 4-.17 11.8-.17m0-5.26c-7.93 0-8.92 0-12 .18a21.42 21.42 0 0 0-7.09 1.36 14.31 14.31 0 0 0-5.21 3.35 14.31 14.31 0 0 0-3.37 5.17A21.42 21.42 0 0 0 1 18C.84 21.08.81 22.07.81 30s0 8.92.18 12a21.42 21.42 0 0 0 1.36 7.09 14.31 14.31 0 0 0 3.37 5.17 14.31 14.31 0 0 0 5.17 3.37A21.42 21.42 0 0 0 18 59c3.11.14 4.11.18 12 .18s8.92 0 12-.18a21.43 21.43 0 0 0 7.09-1.36 14.93 14.93 0 0 0 8.54-8.54A21.43 21.43 0 0 0 59 42c.14-3.11.18-4.11.18-12s0-8.92-.18-12a21.43 21.43 0 0 0-1.36-7.09 14.31 14.31 0 0 0-3.37-5.17 14.31 14.31 0 0 0-5.17-3.37A21.43 21.43 0 0 0 42 1C38.92.84 37.93.81 30 .81z"/>
      <path d="M30 15a15 15 0 1 0 15 15 15 15 0 0 0-15-15zm0 24.72A9.73 9.73 0 1 1 39.73 30 9.73 9.73 0 0 1 30 39.73z"/>
      <circle cx="45.58" cy="14.42" r="3.5"/>
    </symbol>

    <symbol id="icon-pinterest" viewBox="0 0 20 20">
      <title>Pinterest icon</title>
      <path d="M9.797,2.214C9.466,2.256,9.134,2.297,8.802,2.338C8.178,2.493,7.498,2.64,6.993,2.935C5.646,3.723,4.712,4.643,4.087,6.139C3.985,6.381,3.982,6.615,3.909,6.884c-0.48,1.744,0.37,3.548,1.402,4.173c0.198,0.119,0.649,0.332,0.815,0.049c0.092-0.156,0.071-0.364,0.128-0.546c0.037-0.12,0.154-0.347,0.127-0.496c-0.046-0.255-0.319-0.416-0.434-0.62C5.715,9.027,5.703,8.658,5.59,8.101c0.009-0.075,0.017-0.149,0.026-0.224C5.65,7.254,5.755,6.805,5.948,6.362c0.564-1.301,1.47-2.025,2.931-2.458c0.327-0.097,1.25-0.252,1.734-0.149c0.289,0.05,0.577,0.099,0.866,0.149c1.048,0.33,1.811,0.938,2.218,1.888c0.256,0.591,0.33,1.725,0.154,2.483c-0.085,0.36-0.072,0.667-0.179,0.993c-0.397,1.206-0.979,2.323-2.295,2.633c-0.868,0.205-1.519-0.324-1.733-0.869c-0.06-0.151-0.161-0.418-0.101-0.671c0.229-0.978,0.56-1.854,0.815-2.831c0.243-0.931-0.218-1.665-0.943-1.837C8.513,5.478,7.816,6.312,7.579,6.858C7.39,7.292,7.276,8.093,7.426,8.672c0.047,0.183,0.269,0.674,0.23,0.844c-0.174,0.755-0.372,1.568-0.587,2.31c-0.223,0.771-0.344,1.562-0.56,2.311c-0.1,0.342-0.096,0.709-0.179,1.066v0.521c-0.075,0.33-0.019,0.916,0.051,1.242c0.045,0.209-0.027,0.467,0.076,0.621c0.002,0.111,0.017,0.135,0.052,0.199c0.319-0.01,0.758-0.848,0.917-1.094c0.304-0.467,0.584-0.967,0.816-1.514c0.208-0.494,0.241-1.039,0.408-1.566c0.12-0.379,0.292-0.824,0.331-1.24h0.025c0.066,0.229,0.306,0.395,0.485,0.52c0.56,0.4,1.525,0.77,2.573,0.523c1.188-0.281,2.133-0.838,2.755-1.664c0.457-0.609,0.804-1.313,1.07-2.112c0.131-0.392,0.158-0.826,0.256-1.241c0.241-1.043-0.082-2.298-0.384-2.981C14.847,3.35,12.902,2.17,9.797,2.214"></path>
    </symbol>

    <symbol id="icon-google-plus" viewBox="0 0 20 20">
      <title>Google+ icon</title>
      <path d="M8.937,10.603c-0.383-0.284-0.741-0.706-0.754-0.837c0-0.223,0-0.326,0.526-0.758c0.684-0.56,1.062-1.297,1.062-2.076c0-0.672-0.188-1.273-0.512-1.71h0.286l1.58-1.196h-4.28c-1.717,0-3.222,1.348-3.222,2.885c0,1.587,1.162,2.794,2.726,2.858c-0.024,0.113-0.037,0.225-0.037,0.334c0,0.229,0.052,0.448,0.157,0.659c-1.938,0.013-3.569,1.309-3.569,2.84c0,1.375,1.571,2.373,3.735,2.373c2.338,0,3.599-1.463,3.599-2.84C10.233,11.99,9.882,11.303,8.937,10.603 M5.443,6.864C5.371,6.291,5.491,5.761,5.766,5.444c0.167-0.192,0.383-0.293,0.623-0.293l0,0h0.028c0.717,0.022,1.405,0.871,1.532,1.89c0.073,0.583-0.052,1.127-0.333,1.451c-0.167,0.192-0.378,0.293-0.64,0.292h0C6.273,8.765,5.571,7.883,5.443,6.864 M6.628,14.786c-1.066,0-1.902-0.687-1.902-1.562c0-0.803,0.978-1.508,2.093-1.508l0,0l0,0h0.029c0.241,0.003,0.474,0.04,0.695,0.109l0.221,0.158c0.567,0.405,0.866,0.634,0.956,1.003c0.022,0.097,0.033,0.194,0.033,0.291C8.752,14.278,8.038,14.786,6.628,14.786 M14.85,4.765h-1.493v2.242h-2.249v1.495h2.249v2.233h1.493V8.502h2.252V7.007H14.85V4.765z"></path>
    </symbol>

    <symbol id="icon-youtube" viewBox="0 0 20 20">
      <title>YouTube icon</title>
      <path d="M9.426,7.625h0.271c0.596,0,1.079-0.48,1.079-1.073V4.808c0-0.593-0.483-1.073-1.079-1.073H9.426c-0.597,0-1.079,0.48-1.079,1.073v1.745C8.347,7.145,8.83,7.625,9.426,7.625 M9.156,4.741c0-0.222,0.182-0.402,0.404-0.402c0.225,0,0.405,0.18,0.405,0.402V6.62c0,0.222-0.181,0.402-0.405,0.402c-0.223,0-0.404-0.181-0.404-0.402V4.741z M12.126,7.625c0.539,0,1.013-0.47,1.013-0.47v0.403h0.81V3.735h-0.81v2.952c0,0-0.271,0.335-0.54,0.335c-0.271,0-0.271-0.202-0.271-0.202V3.735h-0.81v3.354C11.519,7.089,11.586,7.625,12.126,7.625 M6.254,7.559H7.2v-2.08l1.079-2.952H7.401L6.727,4.473L6.052,2.527H5.107l1.146,2.952V7.559z M11.586,12.003c-0.175,0-0.312,0.104-0.405,0.204v2.706c0.086,0.091,0.213,0.18,0.405,0.18c0.405,0,0.405-0.451,0.405-0.451v-2.188C11.991,12.453,11.924,12.003,11.586,12.003 M14.961,8.463c0,0-2.477-0.129-4.961-0.129c-2.475,0-4.96,0.129-4.96,0.129c-1.119,0-2.025,0.864-2.025,1.93c0,0-0.203,1.252-0.203,2.511c0,1.252,0.203,2.51,0.203,2.51c0,1.066,0.906,1.931,2.025,1.931c0,0,2.438,0.129,4.96,0.129c2.437,0,4.961-0.129,4.961-0.129c1.117,0,2.024-0.864,2.024-1.931c0,0,0.202-1.268,0.202-2.51c0-1.268-0.202-2.511-0.202-2.511C16.985,9.328,16.078,8.463,14.961,8.463 M7.065,10.651H6.052v5.085H5.107v-5.085H4.095V9.814h2.97V10.651z M9.628,15.736h-0.81v-0.386c0,0-0.472,0.45-1.012,0.45c-0.54,0-0.606-0.515-0.606-0.515v-3.991h0.809v3.733c0,0,0,0.193,0.271,0.193c0.27,0,0.54-0.322,0.54-0.322v-3.604h0.81V15.736z M12.801,14.771c0,0,0,1.03-0.742,1.03c-0.455,0-0.73-0.241-0.878-0.429v0.364h-0.876V9.814h0.876v1.92c0.135-0.142,0.464-0.439,0.878-0.439c0.54,0,0.742,0.45,0.742,1.03V14.771z M15.973,12.39v1.287h-1.688v0.965c0,0,0,0.451,0.405,0.451s0.405-0.451,0.405-0.451v-0.45h0.877v0.708c0,0-0.136,0.901-1.215,0.901c-1.08,0-1.282-0.901-1.282-0.901v-2.51c0,0,0-1.095,1.282-1.095S15.973,12.39,15.973,12.39 M14.69,12.003c-0.405,0-0.405,0.45-0.405,0.45v0.579h0.811v-0.579C15.096,12.453,15.096,12.003,14.69,12.003"></path>
    </symbol>

    <symbol id="icon-linkedin" viewBox="0 0 20 20">
      <title>LinkedIn icon</title>
      <path d="M2.45,4.82A2.3,2.3,0,1,1,2.52.24,2.3,2.3,0,0,1,5,2.52,2.32,2.32,0,0,1,2.48,4.82ZM4.58,6.9V19.82H.42V6.9Zm6.67,5.42a2.26,2.26,0,0,1,2.31-2.5c1.25,0,2.27.83,2.27,2.92v7.08H20v-7.5c0-3.75-2.08-5.83-5-5.83a4.47,4.47,0,0,0-3.75,2.2L11.11,6.9H7c0,.44.07,2.92.07,2.92v10h4.17Z"/>
    </symbol>


    <symbol id="icon-contact" viewBox="0 0 20 20">
      <title>Contact icon</title>
      <path d="M19.291,3.026c0.002-0.15-0.053-0.301-0.167-0.415c-0.122-0.122-0.286-0.172-0.444-0.161H1.196
        c-0.16-0.011-0.322,0.039-0.444,0.161C0.637,2.725,0.583,2.875,0.585,3.026c0,0.003-0.002,0.006-0.002,0.009v14.032
        c0,0.322,0.262,0.584,0.585,0.584h17.54c0.322,0,0.584-0.262,0.584-0.584V3.035C19.292,3.032,19.291,3.029,19.291,3.026z
         M17.147,3.619l-7.21,6.251L2.728,3.619H17.147z M18.122,15.896c0,0.323-0.261,0.584-0.584,0.584H2.337
        c-0.323,0-0.585-0.261-0.585-0.584V4.292l7.732,6.704c0.013,0.017,0.019,0.035,0.034,0.052c0.115,0.114,0.268,0.169,0.419,0.166
        c0.151,0.003,0.304-0.052,0.419-0.166c0.015-0.017,0.021-0.035,0.034-0.052l7.731-6.704V15.896z"></path>
    </symbol>

    <symbol id="icon-info" viewBox="0 0 20 20">
      <title>Info icon</title>
      <path d="M20 10A10 10 0 1 1 10 0a10 10 0 0 1 10 10zm-8.33-4.58A1.67 1.67 0 1 0 10 7.08a1.66 1.66 0 0 0 1.67-1.66zm-.42 3.75h-2.5v7.08h2.5z"/>
    </symbol>

  </defs>
</svg>
